<svg width="980" height="100" viewBox="0 0 980 100" fill="none" xmlns="http://www.w3.org/2000/svg">
<rect x="0.5" y="0.5" width="99" height="99" stroke="white"/>
<rect x="110.5" y="0.5" width="99" height="99" stroke="white"/>
<rect x="220.5" y="0.5" width="99" height="99" stroke="white"/>
<rect x="330.5" y="0.5" width="99" height="99" stroke="white"/>
<rect x="440.5" y="0.5" width="99" height="99" stroke="white"/>
<rect x="550.5" y="0.5" width="99" height="99" stroke="white"/>
<rect x="660.5" y="0.5" width="99" height="99" stroke="white"/>
<rect x="770.5" y="0.5" width="99" height="99" stroke="white"/>
<rect x="880.5" y="0.5" width="99" height="99" stroke="white"/>
<path d="M28.9673 71L47.9873 29H53.9273L73.0073 71H66.7073L49.7273 32.36H52.1273L35.1473 71H28.9673ZM37.0673 60.5L38.6873 55.7H62.3273L64.0673 60.5H37.0673Z" fill="white"/>
<path d="M146.488 71V29H152.488V65.78H175.228V71H146.488Z" fill="white"/>
<path d="M248.648 71V29H253.568L272.408 60.74H269.768L288.368 29H293.288L293.348 71H287.588L287.528 38.06H288.908L272.348 65.9H269.588L252.908 38.06H254.408V71H248.648Z" fill="white"/>
<path d="M488.033 71V34.22H473.633V29H508.373V34.22H493.973V71H488.033Z" fill="white"/>
<path d="M380.565 72.48C377.365 72.48 374.385 71.94 371.625 70.86C368.905 69.78 366.545 68.28 364.545 66.36C362.545 64.4 360.985 62.12 359.865 59.52C358.745 56.92 358.185 54.08 358.185 51C358.185 47.92 358.745 45.08 359.865 42.48C360.985 39.88 362.545 37.62 364.545 35.7C366.545 33.74 368.905 32.22 371.625 31.14C374.345 30.06 377.325 29.52 380.565 29.52C383.765 29.52 386.705 30.06 389.385 31.14C392.105 32.18 394.465 33.68 396.465 35.64C398.505 37.56 400.065 39.82 401.145 42.42C402.265 45.02 402.825 47.88 402.825 51C402.825 54.12 402.265 56.98 401.145 59.58C400.065 62.18 398.505 64.46 396.465 66.42C394.465 68.34 392.105 69.84 389.385 70.92C386.705 71.96 383.765 72.48 380.565 72.48ZM380.565 67.14C382.885 67.14 385.025 66.74 386.985 65.94C388.985 65.14 390.705 64.02 392.145 62.58C393.625 61.1 394.765 59.38 395.565 57.42C396.405 55.46 396.825 53.32 396.825 51C396.825 48.68 396.405 46.54 395.565 44.58C394.765 42.62 393.625 40.92 392.145 39.48C390.705 38 388.985 36.86 386.985 36.06C385.025 35.26 382.885 34.86 380.565 34.86C378.205 34.86 376.025 35.26 374.025 36.06C372.065 36.86 370.345 38 368.865 39.48C367.385 40.92 366.225 42.62 365.385 44.58C364.585 46.54 364.185 48.68 364.185 51C364.185 53.32 364.585 55.46 365.385 57.42C366.225 59.38 367.385 61.1 368.865 62.58C370.345 64.02 372.065 65.14 374.025 65.94C376.025 66.74 378.205 67.14 380.565 67.14Z" fill="white"/>
<path d="M908.648 71V29H913.568L932.408 60.74H929.768L948.368 29H953.288L953.348 71H947.588L947.528 38.06H948.908L932.348 65.9H929.588L912.908 38.06H914.408V71H908.648Z" fill="white"/>
<path d="M578.967 71L597.987 29H603.927L623.007 71H616.707L599.727 32.36H602.127L585.147 71H578.967ZM587.067 60.5L588.687 55.7H612.327L614.067 60.5H587.067ZM596.487 25.58L604.647 17.78H611.967L601.887 25.58H596.487Z" fill="white"/>
<path d="M710.907 71.48C707.707 71.48 704.647 71 701.727 70.04C698.807 69.04 696.507 67.76 694.827 66.2L697.047 61.52C698.647 62.92 700.687 64.08 703.167 65C705.647 65.92 708.227 66.38 710.907 66.38C713.347 66.38 715.327 66.1 716.847 65.54C718.367 64.98 719.487 64.22 720.207 63.26C720.927 62.26 721.287 61.14 721.287 59.9C721.287 58.46 720.807 57.3 719.847 56.42C718.927 55.54 717.707 54.84 716.187 54.32C714.707 53.76 713.067 53.28 711.267 52.88C709.467 52.48 707.647 52.02 705.807 51.5C704.007 50.94 702.347 50.24 700.827 49.4C699.347 48.56 698.147 47.44 697.227 46.04C696.307 44.6 695.847 42.76 695.847 40.52C695.847 38.36 696.407 36.38 697.527 34.58C698.687 32.74 700.447 31.28 702.807 30.2C705.207 29.08 708.247 28.52 711.927 28.52C714.367 28.52 716.787 28.84 719.187 29.48C721.587 30.12 723.667 31.04 725.427 32.24L723.447 37.04C721.647 35.84 719.747 34.98 717.747 34.46C715.747 33.9 713.807 33.62 711.927 33.62C709.567 33.62 707.627 33.92 706.107 34.52C704.587 35.12 703.467 35.92 702.747 36.92C702.067 37.92 701.727 39.04 701.727 40.28C701.727 41.76 702.187 42.94 703.107 43.82C704.067 44.7 705.287 45.4 706.767 45.92C708.287 46.44 709.947 46.92 711.747 47.36C713.547 47.76 715.347 48.22 717.147 48.74C718.987 49.26 720.647 49.94 722.127 50.78C723.647 51.62 724.867 52.74 725.787 54.14C726.707 55.54 727.167 57.34 727.167 59.54C727.167 61.66 726.587 63.64 725.427 65.48C724.267 67.28 722.467 68.74 720.027 69.86C717.627 70.94 714.587 71.48 710.907 71.48Z" fill="white"/>
<path d="M818.013 71V29H824.013V71H818.013Z" fill="white"/>
</svg>
