<svg width="430" height="320" viewBox="0 0 430 320" fill="none" xmlns="http://www.w3.org/2000/svg">
<path d="M0.5 0.5H99.5V99.5H0.5V0.5ZM110.5 0.5H209.5V99.5H110.5V0.5ZM0.5 110.5H99.5V209.5H0.5V110.5ZM110.5 110.5H209.5V209.5H110.5V110.5ZM220.5 110.5H319.5V209.5H220.5V110.5ZM330.5 110.5H429.5V209.5H330.5V110.5ZM0.5 220.5H99.5V319.5H0.5V220.5ZM110.5 220.5H209.5V319.5H110.5V220.5ZM220.5 220.5H319.5V319.5H220.5V220.5Z" stroke="#7F7F7F"/>
<path d="M27.9671 71L46.9871 29H52.9271L72.0071 71H65.7071L48.7271 32.36H51.1271L34.1471 71H27.9671ZM36.0671 60.5L37.6871 55.7H61.3271L63.0672 60.5H36.0671Z" fill="black"/>
<path d="M145.487 71V29H151.487V65.78H174.227V71H145.487Z" fill="black"/>
<path d="M27.6475 181V139H32.5675L51.4075 170.74H48.7675L67.3675 139H72.2875L72.3475 181H66.5875L66.5275 148.06H67.9075L51.3475 175.9H48.5875L31.9075 148.06H33.4075V181H27.6475Z" fill="black"/>
<path d="M267.032 181V144.22H252.632V139H287.372V144.22H272.972V181H267.032Z" fill="black"/>
<path d="M159.564 182.48C156.365 182.48 153.384 181.94 150.624 180.86C147.904 179.78 145.544 178.28 143.544 176.36C141.544 174.4 139.984 172.12 138.864 169.52C137.744 166.92 137.184 164.08 137.184 161C137.184 157.92 137.744 155.08 138.864 152.48C139.984 149.88 141.544 147.62 143.544 145.7C145.544 143.74 147.904 142.22 150.624 141.14C153.344 140.06 156.324 139.52 159.564 139.52C162.764 139.52 165.704 140.06 168.384 141.14C171.104 142.18 173.464 143.68 175.464 145.64C177.504 147.56 179.064 149.82 180.145 152.42C181.264 155.02 181.824 157.88 181.824 161C181.824 164.12 181.264 166.98 180.145 169.58C179.064 172.18 177.504 174.46 175.464 176.42C173.464 178.34 171.104 179.84 168.384 180.92C165.704 181.96 162.764 182.48 159.564 182.48ZM159.564 177.14C161.885 177.14 164.025 176.74 165.984 175.94C167.984 175.14 169.704 174.02 171.145 172.58C172.624 171.1 173.764 169.38 174.564 167.42C175.404 165.46 175.824 163.32 175.824 161C175.824 158.68 175.404 156.54 174.564 154.58C173.764 152.62 172.624 150.92 171.145 149.48C169.704 148 167.984 146.86 165.984 146.06C164.025 145.26 161.885 144.86 159.564 144.86C157.204 144.86 155.024 145.26 153.024 146.06C151.064 146.86 149.344 148 147.864 149.48C146.384 150.92 145.224 152.62 144.384 154.58C143.584 156.54 143.184 158.68 143.184 161C143.184 163.32 143.584 165.46 144.384 167.42C145.224 169.38 146.384 171.1 147.864 172.58C149.344 174.02 151.064 175.14 153.024 175.94C155.024 176.74 157.204 177.14 159.564 177.14Z" fill="black"/>
<path d="M247.647 291V249H252.567L271.407 280.74H268.767L287.367 249H292.287L292.347 291H286.587L286.527 258.06H287.907L271.347 285.9H268.587L251.907 258.06H253.407V291H247.647Z" fill="black"/>
<path d="M357.967 181L376.987 139H382.927L402.007 181H395.707L378.727 142.36H381.127L364.147 181H357.967ZM366.067 170.5L367.687 165.7H391.327L393.067 170.5H366.067ZM375.487 135.58L383.647 127.78H390.967L380.887 135.58H375.487Z" fill="black"/>
<path d="M49.907 291.48C46.707 291.48 43.647 291 40.727 290.04C37.807 289.04 35.507 287.76 33.827 286.2L36.047 281.52C37.647 282.92 39.687 284.08 42.167 285C44.647 285.92 47.227 286.38 49.907 286.38C52.347 286.38 54.327 286.1 55.847 285.54C57.367 284.98 58.487 284.22 59.207 283.26C59.927 282.26 60.287 281.14 60.287 279.9C60.287 278.46 59.807 277.3 58.847 276.42C57.927 275.54 56.707 274.84 55.187 274.32C53.707 273.76 52.067 273.28 50.267 272.88C48.467 272.48 46.647 272.02 44.807 271.5C43.007 270.94 41.347 270.24 39.827 269.4C38.347 268.56 37.147 267.44 36.227 266.04C35.307 264.6 34.847 262.76 34.847 260.52C34.847 258.36 35.407 256.38 36.527 254.58C37.687 252.74 39.447 251.28 41.807 250.2C44.207 249.08 47.247 248.52 50.927 248.52C53.367 248.52 55.787 248.84 58.187 249.48C60.587 250.12 62.667 251.04 64.427 252.24L62.447 257.04C60.647 255.84 58.747 254.98 56.747 254.46C54.747 253.9 52.807 253.62 50.927 253.62C48.567 253.62 46.627 253.92 45.107 254.52C43.587 255.12 42.467 255.92 41.747 256.92C41.067 257.92 40.727 259.04 40.727 260.28C40.727 261.76 41.187 262.94 42.107 263.82C43.067 264.7 44.287 265.4 45.767 265.92C47.287 266.44 48.947 266.92 50.747 267.36C52.547 267.76 54.347 268.22 56.147 268.74C57.987 269.26 59.647 269.94 61.127 270.78C62.647 271.62 63.867 272.74 64.787 274.14C65.707 275.54 66.167 277.34 66.167 279.54C66.167 281.66 65.587 283.64 64.427 285.48C63.267 287.28 61.467 288.74 59.027 289.86C56.627 290.94 53.587 291.48 49.907 291.48Z" fill="black"/>
<path d="M157.013 291V249H163.013V291H157.013Z" fill="black"/>
</svg>
