<svg width="374" height="39" viewBox="0 0 374 39" fill="none" xmlns="http://www.w3.org/2000/svg">
<path d="M1 1H37.0828V37.0828H1V1ZM42.8911 1H78.974V37.0828H42.8911V1ZM84.7823 1H120.865V37.0828H84.7823V1ZM126.673 1H162.756V37.0828H126.673V1ZM168.565 1H204.647V37.0828H168.565V1ZM210.456 1H246.538V37.0828H210.456V1ZM252.347 1H288.43V37.0828H252.347V1ZM294.238 1H330.321V37.0828H294.238V1ZM336.129 1H372.212V37.0828H336.129V1Z" stroke="rgba(217,164,4,0.5)" stroke-width="1" fill="rgba(47,62,132,0.1)" />
<path d="M10.6504 27.0392L17.8937 11.0444H20.1559L27.4221 27.0392H25.0229L18.5564 12.324H19.4704L13.0039 27.0392H10.6504ZM13.7351 23.0405L14.352 21.2125H23.3548L24.0175 23.0405H13.7351Z" fill="rgba(255,255,255,1)"/>
<path d="M55.4054 27.0392V11.0444H57.6904V25.0513H66.3504V27.0392H55.4054Z" fill="rgba(255,255,255,1)"/>
<path d="M94.3109 27.0392V11.0444H96.1846L103.359 23.1319H102.354L109.437 11.0444H111.311L111.334 27.0392H109.14L109.118 14.4947H109.643L103.337 25.097H102.285L95.9332 14.4947H96.5045V27.0392H94.3109Z" fill="rgba(255,255,255,1)"/>
<path d="M185.476 27.0392V13.0323H179.992V11.0444H193.222V13.0323H187.738V27.0392H185.476Z" fill="rgba(255,255,255,1)"/>
<path d="M144.549 27.6028C143.33 27.6028 142.195 27.3972 141.144 26.9859C140.108 26.5746 139.209 26.0033 138.448 25.2721C137.686 24.5257 137.092 23.6574 136.666 22.6673C136.239 21.6771 136.026 20.5956 136.026 19.4226C136.026 18.2497 136.239 17.1681 136.666 16.1779C137.092 15.1878 137.686 14.3271 138.448 13.5959C139.209 12.8495 140.108 12.2706 141.144 11.8594C142.18 11.4481 143.315 11.2424 144.549 11.2424C145.767 11.2424 146.887 11.4481 147.908 11.8594C148.943 12.2554 149.842 12.8267 150.604 13.5731C151.381 14.3043 151.975 15.1649 152.386 16.1551C152.813 17.1453 153.026 18.2344 153.026 19.4226C153.026 20.6108 152.813 21.7 152.386 22.6901C151.975 23.6803 151.381 24.5486 150.604 25.295C149.842 26.0262 148.943 26.5974 147.908 27.0087C146.887 27.4048 145.767 27.6028 144.549 27.6028ZM144.549 25.5692C145.432 25.5692 146.247 25.4168 146.994 25.1122C147.755 24.8075 148.41 24.381 148.959 23.8326C149.522 23.269 149.956 22.6139 150.261 21.8675C150.581 21.1211 150.741 20.3061 150.741 19.4226C150.741 18.5391 150.581 17.7241 150.261 16.9777C149.956 16.2313 149.522 15.5839 148.959 15.0355C148.41 14.4718 147.755 14.0377 146.994 13.733C146.247 13.4284 145.432 13.276 144.549 13.276C143.65 13.276 142.82 13.4284 142.058 13.733C141.312 14.0377 140.657 14.4718 140.093 15.0355C139.529 15.5839 139.088 16.2313 138.768 16.9777C138.463 17.7241 138.311 18.5391 138.311 19.4226C138.311 20.3061 138.463 21.1211 138.768 21.8675C139.088 22.6139 139.529 23.269 140.093 23.8326C140.657 24.381 141.312 24.8075 142.058 25.1122C142.82 25.4168 143.65 25.5692 144.549 25.5692Z" fill="rgba(255,255,255,1)"/>
<path d="M345.658 27.0392V11.0444H347.531L354.706 23.1319H353.701L360.784 11.0444H362.658L362.681 27.0392H360.487L360.464 14.4947H360.99L354.683 25.097H353.632L347.28 14.4947H347.851V27.0392H345.658Z" fill="rgba(255,255,255,1)"/>
<path d="M220.106 27.0392L227.349 11.0444H229.612L236.878 27.0392H234.479L228.012 12.324H228.926L222.46 27.0392H220.106ZM223.191 23.0405L223.808 21.2125H232.81L233.473 23.0405H223.191ZM226.778 9.74195L229.886 6.77148H232.673L228.835 9.74195H226.778Z" fill="rgba(255,255,255,1)"/>
<path d="M270.353 27.222C269.134 27.222 267.969 27.0392 266.857 26.6736C265.744 26.2928 264.869 25.8053 264.229 25.2112L265.074 23.4289C265.684 23.9621 266.46 24.4038 267.405 24.7542C268.349 25.1046 269.332 25.2797 270.353 25.2797C271.282 25.2797 272.036 25.1731 272.615 24.9599C273.193 24.7466 273.62 24.4572 273.894 24.0916C274.168 23.7107 274.306 23.2842 274.306 22.812C274.306 22.2636 274.123 21.8218 273.757 21.4867C273.407 21.1516 272.942 20.885 272.363 20.687C271.8 20.4737 271.175 20.2909 270.49 20.1386C269.804 19.9862 269.111 19.8111 268.41 19.613C267.725 19.3998 267.093 19.1332 266.514 18.8133C265.95 18.4934 265.493 18.0669 265.143 17.5337C264.792 16.9853 264.617 16.2846 264.617 15.4315C264.617 14.6089 264.83 13.8549 265.257 13.1694C265.699 12.4687 266.369 11.9127 267.268 11.5014C268.182 11.0748 269.34 10.8616 270.741 10.8616C271.67 10.8616 272.592 10.9834 273.506 11.2272C274.42 11.4709 275.212 11.8213 275.882 12.2783L275.128 14.1062C274.443 13.6492 273.719 13.3217 272.957 13.1237C272.196 12.9104 271.457 12.8038 270.741 12.8038C269.842 12.8038 269.103 12.9181 268.525 13.1466C267.946 13.375 267.519 13.6797 267.245 14.0605C266.986 14.4414 266.857 14.8679 266.857 15.3401C266.857 15.9038 267.032 16.3531 267.382 16.6883C267.748 17.0234 268.212 17.29 268.776 17.488C269.355 17.686 269.987 17.8688 270.672 18.0364C271.358 18.1887 272.043 18.3639 272.729 18.5619C273.43 18.76 274.062 19.0189 274.625 19.3388C275.204 19.6587 275.669 20.0852 276.019 20.6184C276.37 21.1516 276.545 21.8371 276.545 22.6749C276.545 23.4822 276.324 24.2363 275.882 24.937C275.44 25.6225 274.755 26.1785 273.826 26.605C272.912 27.0163 271.754 27.222 270.353 27.222Z" fill="rgba(255,255,255,1)"/>
<path d="M311.141 27.0392V11.0444H313.426V27.0392H311.141Z" fill="rgba(255,255,255,1)"/>
</svg>
